<?xml version="1.0" encoding="UTF-8" standalone="no"?>
<!DOCTYPE svg PUBLIC "-//W3C//DTD SVG 1.1//EN" "http://www.w3.org/Graphics/SVG/1.1/DTD/svg11.dtd">
<svg width="100%" height="100%" viewBox="0 0 498 335" version="1.1" xmlns="http://www.w3.org/2000/svg" xmlns:xlink="http://www.w3.org/1999/xlink" xml:space="preserve" xmlns:serif="http://www.serif.com/" style="fill-rule:evenodd;clip-rule:evenodd;stroke-linejoin:round;stroke-miterlimit:2;">
    <g>
        <rect x="0" y="0" width="498" height="335" style="fill:white;"/>
        <g transform="matrix(0.1,0,0,-0.1,0,335)">
            <path d="M0,3350L0,0L4980,0L4980,3350L0,3350ZM2532,3064C2550,3055 2814,2798 3119,2491C3532,2078 3687,1915 3723,1861C3815,1719 3852,1545 3824,1381C3795,1215 3728,1089 3609,977C3534,905 3417,840 3318,813C3229,789 3063,789 2984,813C2921,832 2822,878 2776,910C2762,921 2747,929 2744,929C2733,929 2738,885 2758,804C2788,684 2858,551 2932,471C2967,434 3000,395 3006,384C3021,355 3009,312 2980,289C2956,270 2938,269 2488,269C2030,269 2020,269 1994,290C1974,306 1968,319 1968,349C1968,383 1976,397 2027,451C2130,561 2201,698 2228,836C2247,931 2243,934 2168,888C2132,866 2067,837 2023,822C1955,800 1925,796 1828,796C1731,796 1701,800 1633,822C1520,859 1435,912 1347,999C1286,1060 1262,1093 1225,1169C1163,1294 1147,1361 1147,1484C1147,1637 1185,1762 1271,1889C1313,1952 2406,3048 2443,3065C2482,3082 2493,3082 2532,3064Z" style="fill:rgb(27,138,76);fill-rule:nonzero;"/>
            <path d="M1927,2392C1425,1887 1368,1827 1335,1763C1285,1667 1268,1593 1268,1479C1268,1315 1335,1168 1459,1055C1669,865 1963,863 2187,1049L2248,1100L2248,1599L2099,1599C2016,1599 1947,1603 1944,1607C1938,1617 2476,2429 2489,2429C2498,2429 3022,1646 3035,1614C3039,1601 3017,1599 2884,1599L2728,1599L2728,1110L2765,1073C2820,1017 2915,961 2993,936C3097,903 3238,906 3333,943C3510,1011 3648,1163 3694,1340C3719,1435 3716,1577 3688,1659C3641,1794 3608,1832 3035,2407C2737,2705 2491,2949 2488,2949C2485,2949 2232,2698 1927,2392Z" style="fill:rgb(27,138,76);fill-rule:nonzero;"/>
            <path d="M2323,1978C2235,1845 2162,1733 2160,1728C2158,1723 2204,1719 2262,1719L2368,1719L2368,1357C2368,877 2353,758 2271,595C2235,523 2173,423 2157,413C2124,393 2177,389 2493,389L2838,389L2797,442C2739,518 2672,661 2641,775C2614,874 2614,876 2610,1297L2606,1719L2712,1719C2770,1719 2818,1721 2818,1724C2818,1732 2497,2214 2490,2216C2486,2217 2411,2110 2323,1978Z" style="fill:rgb(27,138,76);fill-rule:nonzero;"/>
        </g>
    </g>
</svg>
