<?xml version="1.0" encoding="UTF-8" standalone="no"?>
<!DOCTYPE svg PUBLIC "-//W3C//DTD SVG 1.1//EN" "http://www.w3.org/Graphics/SVG/1.1/DTD/svg11.dtd">
<svg width="100%" height="100%" viewBox="0 0 498 335" version="1.1" xmlns="http://www.w3.org/2000/svg" xmlns:xlink="http://www.w3.org/1999/xlink" xml:space="preserve" xmlns:serif="http://www.serif.com/" style="fill-rule:evenodd;clip-rule:evenodd;stroke-linejoin:round;stroke-miterlimit:2;">
    <g>
        <rect x="0" y="0" width="498" height="335" style="fill:white;"/>
        <g transform="matrix(0.1,0,0,-0.1,0,335)">
            <path d="M0,3350L0,0L4980,0L4980,3350L0,3350ZM2404,2955C2422,2946 2686,2689 2991,2382C3404,1969 3559,1806 3595,1752C3687,1610 3724,1436 3696,1272C3667,1106 3600,980 3481,868C3406,796 3289,731 3190,704C3101,680 2935,680 2856,704C2793,723 2694,769 2648,801C2634,812 2619,820 2616,820C2605,820 2610,776 2630,695C2660,575 2730,442 2804,362C2839,325 2872,286 2878,275C2893,246 2881,203 2852,180C2828,161 2810,160 2360,160C1902,160 1892,160 1866,181C1846,197 1840,210 1840,240C1840,274 1848,288 1899,342C2002,452 2073,589 2100,727C2119,822 2115,825 2040,779C2004,757 1939,728 1895,713C1827,691 1797,687 1700,687C1603,687 1573,691 1505,713C1392,750 1307,803 1219,890C1158,951 1134,984 1097,1060C1035,1185 1019,1252 1019,1375C1019,1528 1057,1653 1143,1780C1185,1843 2278,2939 2315,2956C2354,2973 2365,2973 2404,2955Z" style="fill:rgb(27,138,76);fill-rule:nonzero;"/>
            <path d="M1799,2283C1297,1778 1240,1718 1207,1654C1157,1558 1140,1484 1140,1370C1140,1206 1207,1059 1331,946C1541,756 1835,754 2059,940L2120,991L2120,1490L1971,1490C1888,1490 1819,1494 1816,1498C1810,1508 2348,2320 2361,2320C2370,2320 2894,1537 2907,1505C2911,1492 2889,1490 2756,1490L2600,1490L2600,1001L2637,964C2692,908 2787,852 2865,827C2969,794 3110,797 3205,834C3382,902 3520,1054 3566,1231C3591,1326 3588,1468 3560,1550C3513,1685 3480,1723 2907,2298C2609,2596 2363,2840 2360,2840C2357,2840 2104,2589 1799,2283Z" style="fill:rgb(27,138,76);fill-rule:nonzero;"/>
            <path d="M2195,1869C2107,1736 2034,1624 2032,1619C2030,1614 2076,1610 2134,1610L2240,1610L2240,1248C2240,768 2225,649 2143,486C2107,414 2045,314 2029,304C1996,284 2049,280 2365,280L2710,280L2669,333C2611,409 2544,552 2513,666C2486,765 2486,767 2482,1188L2478,1610L2584,1610C2642,1610 2690,1612 2690,1615C2690,1623 2369,2105 2362,2107C2358,2108 2283,2001 2195,1869Z" style="fill:rgb(27,138,76);fill-rule:nonzero;"/>
        </g>
    </g>
</svg>
